<?xml version="1.0" encoding="utf-8"?>
<!-- Generator: Adobe Illustrator 22.0.1, SVG Export Plug-In . SVG Version: 6.00 Build 0)  -->
<svg version="1.1" id="Layer_1" xmlns="http://www.w3.org/2000/svg" xmlns:xlink="http://www.w3.org/1999/xlink" x="0px" y="0px"
	 viewBox="0 0 35 35" enable-background="new 0 0 35 35" xml:space="preserve">
<g>
	<defs>
		<rect id="SVGID_11_" x="1" y="1.5" width="33.6" height="32"/>
	</defs>
	<clipPath id="SVGID_2_">
		<use xlink:href="#SVGID_11_"  overflow="visible"/>
	</clipPath>
	<path clip-path="url(#SVGID_2_)" fill="#FFFFFF" d="M11.1,31.9c-3.8,0-6.5-2.4-6.5-5.3c0-2.8,3.2-5.3,7-5.2c0.9,0,1.7,0.1,2.5,0.4
		c2.1,1.4,3.7,2.3,4.1,4c0.1,0.3,0.1,0.7,0.1,1C18.3,29.7,16.4,31.9,11.1,31.9 M6.7,8.9C6.2,5.5,7.9,3,10.5,3
		c2.5,0.1,4.7,2.8,5.2,6.2c0.4,3.3-1,5.5-3.6,5.4C9.5,14.5,7.1,12.2,6.7,8.9 M17.5,19.8c-0.9-0.7-2.8-2-2.8-2.9
		c0-1.1,0.3-1.6,1.9-2.8c1.6-1.3,2.8-3,2.8-5c0-2.3-0.9-4.3-2.7-5.3h2.5l2.1-2.2h-9.4C7.1,1.5,3.1,5,3.1,8.9c0,4,2.6,7.1,7.1,7.1
		c0.3,0,0.6,0,0.9,0c-0.3,0.6-0.5,1.2-0.5,1.8c0,1.1,0.6,1.7,1.4,2.5c-0.6,0-1.1,0-1.7,0c-5.5,0-9.3,3.8-9.3,7.4
		c0,3.6,4.6,5.8,10.1,5.8c6.2,0,10.1-3.5,10.1-7.1C21.2,23.5,20.6,22.1,17.5,19.8"/>
</g>
<polygon fill="#FFFFFF" points="26.9,9.4 26.9,14.2 22.1,14.2 22.1,16.6 26.9,16.6 26.9,21.4 29.3,21.4 29.3,16.6 34.1,16.6 
	34.1,14.2 29.3,14.2 29.3,9.4 "/>
<g>
	<defs>
		<rect id="SVGID_13_" x="1" y="1.5" width="33.6" height="32"/>
	</defs>
	<clipPath id="SVGID_4_">
		<use xlink:href="#SVGID_13_"  overflow="visible"/>
	</clipPath>
	<polygon clip-path="url(#SVGID_4_)" fill="none" stroke="#FFFFFF" stroke-miterlimit="10" points="34.1,16.6 29.3,16.6 29.3,21.4 
		26.9,21.4 26.9,16.6 22.1,16.6 22.1,14.2 26.9,14.2 26.9,9.4 29.3,9.4 29.3,14.2 34.1,14.2 	"/>
</g>
</svg>
