<?xml version="1.0" encoding="utf-8"?>
<!-- Generator: Adobe Illustrator 22.0.1, SVG Export Plug-In . SVG Version: 6.00 Build 0)  -->
<svg version="1.1" id="Layer_1" xmlns="http://www.w3.org/2000/svg" xmlns:xlink="http://www.w3.org/1999/xlink" x="0px" y="0px"
	 viewBox="0 0 35 35" enable-background="new 0 0 35 35" xml:space="preserve">
<g>
	<defs>
		<rect id="SVGID_9_" x="1.5" y="1.5" width="32.4" height="32.4"/>
	</defs>
	<clipPath id="SVGID_2_">
		<use xlink:href="#SVGID_9_"  overflow="visible"/>
	</clipPath>
	<path clip-path="url(#SVGID_2_)" fill="#FFFFFF" d="M30.2,33.9H5.2c-2.1,0-3.7-1.7-3.7-3.7V5.2c0-2.1,1.7-3.7,3.7-3.7h24.9
		c2.1,0,3.7,1.7,3.7,3.7v24.9C33.9,32.2,32.2,33.9,30.2,33.9 M17.7,11.5c-3.4,0-6.2,2.8-6.2,6.2c0,3.4,2.8,6.2,6.2,6.2
		c3.4,0,6.2-2.8,6.2-6.2C23.9,14.3,21.1,11.5,17.7,11.5 M30.2,6.5c0-0.7-0.6-1.2-1.2-1.2h-3.7c-0.7,0-1.2,0.6-1.2,1.2v3.7
		c0,0.7,0.6,1.2,1.2,1.2h3.7c0.7,0,1.2-0.6,1.2-1.2V6.5z M30.2,15.2h-2.8c0.2,0.8,0.3,1.6,0.3,2.5c0,5.5-4.5,10-10,10
		c-5.5,0-10-4.5-10-10c0-0.9,0.1-1.7,0.3-2.5H5.2v13.7c0,0.7,0.6,1.2,1.2,1.2h22.4c0.7,0,1.2-0.6,1.2-1.2V15.2z"/>
</g>
</svg>
