<?xml version="1.0" standalone="no"?>
<!DOCTYPE svg PUBLIC "-//W3C//DTD SVG 20010904//EN"
 "http://www.w3.org/TR/2001/REC-SVG-20010904/DTD/svg10.dtd">
<svg version="1.0" xmlns="http://www.w3.org/2000/svg"
 width="260.000000pt" height="260.000000pt" viewBox="0 0 260.000000 260.000000"
 preserveAspectRatio="xMidYMid meet">
<metadata>
Created by potrace 1.11, written by Peter Selinger 2001-2013
</metadata>
<g transform="translate(0.000000,260.000000) scale(0.100000,-0.100000)"
fill="#000000" stroke="none">
<path d="M119 2160 c0 -19 -2 -44 -5 -55 -2 -11 -6 -41 -9 -66 -3 -25 -7 -66
-10 -90 -3 -24 -8 -62 -10 -84 -2 -22 -7 -56 -9 -75 -3 -19 -8 -57 -11 -85 -5
-48 -13 -118 -20 -161 -5 -33 -19 -157 -19 -174 -1 -13 80 -15 664 -16 371 0
674 4 686 8 44 20 54 87 15 107 -9 5 -73 9 -143 9 -103 0 -134 4 -170 20 -196
86 -167 372 48 469 36 17 97 18 738 23 690 5 699 5 702 25 2 11 6 45 9 75 3
30 8 66 10 80 l6 26 -1236 0 -1235 0 -1 -36z"/>
<path d="M1195 1792 c-32 -6 -55 -33 -55 -63 0 -53 18 -59 166 -59 116 0 140
-3 179 -21 183 -86 157 -358 -43 -460 -46 -24 -51 -24 -376 -27 -181 -1 -330
-3 -332 -5 -1 -1 -5 -29 -8 -62 -4 -33 -9 -71 -11 -85 -6 -36 -36 -278 -40
-325 -2 -22 -7 -62 -10 -90 -10 -71 -13 -92 -20 -159 -3 -33 -7 -64 -8 -70 -2
-12 980 -20 987 -8 2 4 7 32 10 63 4 31 8 65 10 75 2 11 7 46 10 79 4 33 11
94 16 135 5 41 12 95 15 120 7 61 14 115 22 175 3 28 7 59 8 70 2 27 16 135
20 160 2 11 4 36 4 55 2 67 -17 64 380 63 323 0 361 2 365 16 3 9 8 41 11 71
3 30 8 66 10 80 2 14 7 50 10 80 3 30 8 66 10 80 2 14 6 46 9 71 l5 45 -662 0
c-364 0 -671 -2 -682 -4z"/>
</g>
</svg>
